<mxfile host="d2695315-5754-4101-931e-71e2de7c6beb" modified="2020-08-10T02:02:59.937Z" agent="5.0 (Macintosh; Intel Mac OS X 10_13_6) AppleWebKit/537.36 (KHTML, like Gecko) Code/1.47.3 Chrome/78.0.3904.130 Electron/7.3.2 Safari/537.36" etag="EirgU2RQOZKp9hLrDRt1" version="13.1.3">
    <diagram id="6hGFLwfOUW9BJ-s0fimq" name="Page-1">
        <mxGraphModel dx="529" dy="297" grid="1" gridSize="10" guides="1" tooltips="1" connect="1" arrows="1" fold="1" page="1" pageScale="1" pageWidth="827" pageHeight="1169" math="0" shadow="0">
            <root>
                <mxCell id="0"/>
                <mxCell id="1" parent="0"/>
                <mxCell id="60" value="" style="rounded=1;whiteSpace=wrap;html=1;shadow=1;labelBackgroundColor=none;strokeColor=#66B2FF;fillColor=none;fontColor=#131313;dashed=1;dashPattern=1 1;" vertex="1" parent="1">
                    <mxGeometry x="10" y="40" width="790" height="490" as="geometry"/>
                </mxCell>
                <mxCell id="61" value="" style="rounded=1;whiteSpace=wrap;html=1;shadow=1;labelBackgroundColor=none;strokeColor=#66B2FF;fillColor=none;fontColor=#131313;dashed=1;dashPattern=1 1;" vertex="1" parent="1">
                    <mxGeometry x="20" y="570" width="380" height="480" as="geometry"/>
                </mxCell>
                <mxCell id="43" value="" style="rounded=1;whiteSpace=wrap;html=1;shadow=1;labelBackgroundColor=none;strokeColor=#7EA6E0;fillColor=#ffffff;fontColor=#131313;" vertex="1" parent="1">
                    <mxGeometry x="75" y="670" width="200" height="40" as="geometry"/>
                </mxCell>
                <mxCell id="12" style="edgeStyle=orthogonalEdgeStyle;rounded=0;orthogonalLoop=1;jettySize=auto;html=1;entryX=0;entryY=0.085;entryDx=0;entryDy=0;entryPerimeter=0;fontColor=#131313;" edge="1" parent="1" source="5" target="7">
                    <mxGeometry relative="1" as="geometry"/>
                </mxCell>
                <mxCell id="35" value="&lt;font color=&quot;#ffffff&quot;&gt;Fetches From Subjects Table&lt;/font&gt;" style="edgeLabel;html=1;align=center;verticalAlign=middle;resizable=0;points=[];fontColor=#131313;" vertex="1" connectable="0" parent="12">
                    <mxGeometry x="-0.4608" relative="1" as="geometry">
                        <mxPoint x="45" y="10" as="offset"/>
                    </mxGeometry>
                </mxCell>
                <mxCell id="34" style="edgeStyle=orthogonalEdgeStyle;curved=1;rounded=0;orthogonalLoop=1;jettySize=auto;html=1;entryX=0.5;entryY=0;entryDx=0;entryDy=0;shadow=1;strokeColor=#FFFFFF;strokeWidth=2;fontColor=#131313;" edge="1" parent="1" source="5" target="6">
                    <mxGeometry relative="1" as="geometry"/>
                </mxCell>
                <mxCell id="36" value="&lt;font color=&quot;#ffffff&quot;&gt;Populates Tags from Subjects&lt;/font&gt;" style="edgeLabel;html=1;align=center;verticalAlign=middle;resizable=0;points=[];fontColor=#131313;" vertex="1" connectable="0" parent="34">
                    <mxGeometry x="-0.1" y="2" relative="1" as="geometry">
                        <mxPoint as="offset"/>
                    </mxGeometry>
                </mxCell>
                <mxCell id="5" value="&lt;font color=&quot;#131313&quot;&gt;&lt;b&gt;&lt;u&gt;Subjects&lt;/u&gt;&lt;/b&gt;&lt;/font&gt;" style="rounded=1;whiteSpace=wrap;html=1;strokeColor=#7EA6E0;fillColor=#ffffff;" vertex="1" parent="1">
                    <mxGeometry x="40" y="120" width="120" height="40" as="geometry"/>
                </mxCell>
                <mxCell id="40" style="edgeStyle=orthogonalEdgeStyle;curved=1;rounded=0;orthogonalLoop=1;jettySize=auto;html=1;exitX=1;exitY=0;exitDx=0;exitDy=0;entryX=0.5;entryY=0;entryDx=0;entryDy=0;shadow=1;strokeColor=#FFFFFF;strokeWidth=2;fontColor=#131313;" edge="1" parent="1" source="6" target="39">
                    <mxGeometry relative="1" as="geometry">
                        <Array as="points">
                            <mxPoint x="180" y="240"/>
                            <mxPoint x="180" y="180"/>
                            <mxPoint x="260" y="180"/>
                        </Array>
                    </mxGeometry>
                </mxCell>
                <mxCell id="6" value="&lt;font color=&quot;#131313&quot;&gt;&lt;b&gt;&lt;u&gt;Tags&lt;/u&gt;&lt;/b&gt;&lt;/font&gt;" style="rounded=1;whiteSpace=wrap;html=1;strokeColor=#7EA6E0;fillColor=#ffffff;" vertex="1" parent="1">
                    <mxGeometry x="40" y="240" width="120" height="40" as="geometry"/>
                </mxCell>
                <mxCell id="22" style="edgeStyle=orthogonalEdgeStyle;curved=1;rounded=0;orthogonalLoop=1;jettySize=auto;html=1;entryX=0;entryY=0.5;entryDx=0;entryDy=0;fontColor=#131313;strokeColor=#FFFF99;strokeWidth=2;" edge="1" parent="1" source="8" target="16">
                    <mxGeometry relative="1" as="geometry"/>
                </mxCell>
                <mxCell id="23" style="edgeStyle=orthogonalEdgeStyle;curved=1;rounded=0;orthogonalLoop=1;jettySize=auto;html=1;entryX=0;entryY=0.5;entryDx=0;entryDy=0;fontColor=#131313;strokeColor=#FFFF99;strokeWidth=2;" edge="1" parent="1" source="8" target="19">
                    <mxGeometry relative="1" as="geometry"/>
                </mxCell>
                <mxCell id="24" style="edgeStyle=orthogonalEdgeStyle;curved=1;rounded=0;orthogonalLoop=1;jettySize=auto;html=1;entryX=0;entryY=0.5;entryDx=0;entryDy=0;fontColor=#131313;strokeColor=#FFFF99;strokeWidth=2;" edge="1" parent="1" source="8" target="20">
                    <mxGeometry relative="1" as="geometry"/>
                </mxCell>
                <mxCell id="25" style="edgeStyle=orthogonalEdgeStyle;curved=1;rounded=0;orthogonalLoop=1;jettySize=auto;html=1;entryX=0;entryY=0.5;entryDx=0;entryDy=0;fontColor=#131313;strokeColor=#FFFF99;strokeWidth=2;" edge="1" parent="1" source="8" target="14">
                    <mxGeometry relative="1" as="geometry"/>
                </mxCell>
                <mxCell id="27" style="edgeStyle=orthogonalEdgeStyle;curved=1;rounded=0;orthogonalLoop=1;jettySize=auto;html=1;entryX=0.993;entryY=0.769;entryDx=0;entryDy=0;entryPerimeter=0;strokeColor=#66B2FF;fontColor=#131313;strokeWidth=2;" edge="1" parent="1" source="9" target="15">
                    <mxGeometry relative="1" as="geometry"/>
                </mxCell>
                <mxCell id="28" style="edgeStyle=orthogonalEdgeStyle;curved=1;rounded=0;orthogonalLoop=1;jettySize=auto;html=1;entryX=1;entryY=0.5;entryDx=0;entryDy=0;strokeColor=#66B2FF;fontColor=#131313;strokeWidth=2;" edge="1" parent="1" source="9" target="14">
                    <mxGeometry relative="1" as="geometry"/>
                </mxCell>
                <mxCell id="29" style="edgeStyle=orthogonalEdgeStyle;curved=1;rounded=0;orthogonalLoop=1;jettySize=auto;html=1;entryX=1;entryY=0.5;entryDx=0;entryDy=0;strokeColor=#66B2FF;fontColor=#131313;strokeWidth=2;" edge="1" parent="1" source="9" target="20">
                    <mxGeometry relative="1" as="geometry"/>
                </mxCell>
                <mxCell id="30" style="edgeStyle=orthogonalEdgeStyle;curved=1;rounded=0;orthogonalLoop=1;jettySize=auto;html=1;strokeColor=#006633;fontColor=#131313;strokeWidth=2;" edge="1" parent="1" source="10" target="14">
                    <mxGeometry relative="1" as="geometry"/>
                </mxCell>
                <mxCell id="31" style="edgeStyle=orthogonalEdgeStyle;curved=1;rounded=0;orthogonalLoop=1;jettySize=auto;html=1;shadow=1;strokeColor=#E5CCFF;strokeWidth=2;fontColor=#131313;" edge="1" parent="1" source="11" target="17">
                    <mxGeometry relative="1" as="geometry"/>
                </mxCell>
                <mxCell id="32" style="edgeStyle=orthogonalEdgeStyle;curved=1;rounded=0;orthogonalLoop=1;jettySize=auto;html=1;shadow=1;strokeColor=#E5CCFF;strokeWidth=2;fontColor=#131313;" edge="1" parent="1" source="11" target="18">
                    <mxGeometry relative="1" as="geometry"/>
                </mxCell>
                <mxCell id="7" value="Subjects" style="swimlane;fontStyle=0;childLayout=stackLayout;horizontal=1;startSize=26;fillColor=#FFFFFF;horizontalStack=0;resizeParent=1;resizeParentMax=0;resizeLast=0;collapsible=1;marginBottom=0;rounded=1;strokeColor=#7EA6E0;labelBackgroundColor=#FFFFFF;fontColor=#131313;" vertex="1" parent="1">
                    <mxGeometry x="370" y="160" width="140" height="130" as="geometry"/>
                </mxCell>
                <mxCell id="8" value="Web Development" style="text;strokeColor=none;fillColor=#ffffff;align=left;verticalAlign=top;spacingLeft=4;spacingRight=4;overflow=hidden;rotatable=0;points=[[0,0.5],[1,0.5]];portConstraint=eastwest;shadow=1;fontColor=#131313;labelBackgroundColor=#FFFF99;" vertex="1" parent="7">
                    <mxGeometry y="26" width="140" height="26" as="geometry"/>
                </mxCell>
                <mxCell id="9" value="React" style="text;strokeColor=none;fillColor=#ffffff;align=left;verticalAlign=top;spacingLeft=4;spacingRight=4;overflow=hidden;rotatable=0;points=[[0,0.5],[1,0.5]];portConstraint=eastwest;shadow=1;fontColor=#131313;labelBackgroundColor=#66B2FF;" vertex="1" parent="7">
                    <mxGeometry y="52" width="140" height="26" as="geometry"/>
                </mxCell>
                <mxCell id="10" value="Node" style="text;strokeColor=none;fillColor=#ffffff;align=left;verticalAlign=top;spacingLeft=4;spacingRight=4;overflow=hidden;rotatable=0;points=[[0,0.5],[1,0.5]];portConstraint=eastwest;shadow=1;fontColor=#131313;labelBackgroundColor=#006633;" vertex="1" parent="7">
                    <mxGeometry y="78" width="140" height="26" as="geometry"/>
                </mxCell>
                <mxCell id="11" value="Diet" style="text;strokeColor=none;fillColor=#ffffff;align=left;verticalAlign=top;spacingLeft=4;spacingRight=4;overflow=hidden;rotatable=0;points=[[0,0.5],[1,0.5]];portConstraint=eastwest;shadow=1;fontColor=#131313;labelBackgroundColor=#E5CCFF;" vertex="1" parent="7">
                    <mxGeometry y="104" width="140" height="26" as="geometry"/>
                </mxCell>
                <mxCell id="13" value="Tags" style="swimlane;fontStyle=0;childLayout=stackLayout;horizontal=1;startSize=26;fillColor=#FFFFFF;horizontalStack=0;resizeParent=1;resizeParentMax=0;resizeLast=0;collapsible=1;marginBottom=0;rounded=1;strokeColor=#7EA6E0;labelBackgroundColor=#FFFFFF;fontColor=#131313;" vertex="1" parent="1">
                    <mxGeometry x="580" y="300" width="140" height="208" as="geometry"/>
                </mxCell>
                <mxCell id="14" value="Javscript" style="text;strokeColor=none;fillColor=#ffffff;align=left;verticalAlign=top;spacingLeft=4;spacingRight=4;overflow=hidden;rotatable=0;points=[[0,0.5],[1,0.5]];portConstraint=eastwest;shadow=1;fontColor=#131313;" vertex="1" parent="13">
                    <mxGeometry y="26" width="140" height="26" as="geometry"/>
                </mxCell>
                <mxCell id="15" value="React" style="text;strokeColor=none;fillColor=#ffffff;align=left;verticalAlign=top;spacingLeft=4;spacingRight=4;overflow=hidden;rotatable=0;points=[[0,0.5],[1,0.5]];portConstraint=eastwest;shadow=1;fontColor=#131313;" vertex="1" parent="13">
                    <mxGeometry y="52" width="140" height="26" as="geometry"/>
                </mxCell>
                <mxCell id="16" value="CSS" style="text;strokeColor=none;fillColor=#ffffff;align=left;verticalAlign=top;spacingLeft=4;spacingRight=4;overflow=hidden;rotatable=0;points=[[0,0.5],[1,0.5]];portConstraint=eastwest;shadow=1;fontColor=#131313;" vertex="1" parent="13">
                    <mxGeometry y="78" width="140" height="26" as="geometry"/>
                </mxCell>
                <mxCell id="17" value="Self Improvment" style="text;strokeColor=none;fillColor=#ffffff;align=left;verticalAlign=top;spacingLeft=4;spacingRight=4;overflow=hidden;rotatable=0;points=[[0,0.5],[1,0.5]];portConstraint=eastwest;shadow=1;fontColor=#131313;" vertex="1" parent="13">
                    <mxGeometry y="104" width="140" height="26" as="geometry"/>
                </mxCell>
                <mxCell id="18" value="Goals" style="text;strokeColor=none;fillColor=#ffffff;align=left;verticalAlign=top;spacingLeft=4;spacingRight=4;overflow=hidden;rotatable=0;points=[[0,0.5],[1,0.5]];portConstraint=eastwest;shadow=1;fontColor=#131313;" vertex="1" parent="13">
                    <mxGeometry y="130" width="140" height="26" as="geometry"/>
                </mxCell>
                <mxCell id="19" value="HTML" style="text;strokeColor=none;fillColor=#ffffff;align=left;verticalAlign=top;spacingLeft=4;spacingRight=4;overflow=hidden;rotatable=0;points=[[0,0.5],[1,0.5]];portConstraint=eastwest;shadow=1;fontColor=#131313;" vertex="1" parent="13">
                    <mxGeometry y="156" width="140" height="26" as="geometry"/>
                </mxCell>
                <mxCell id="20" value="Programming" style="text;strokeColor=none;fillColor=#ffffff;align=left;verticalAlign=top;spacingLeft=4;spacingRight=4;overflow=hidden;rotatable=0;points=[[0,0.5],[1,0.5]];portConstraint=eastwest;shadow=1;fontColor=#131313;" vertex="1" parent="13">
                    <mxGeometry y="182" width="140" height="26" as="geometry"/>
                </mxCell>
                <mxCell id="33" style="edgeStyle=orthogonalEdgeStyle;rounded=0;orthogonalLoop=1;jettySize=auto;html=1;entryX=0.007;entryY=0.087;entryDx=0;entryDy=0;entryPerimeter=0;fontColor=#131313;exitX=0.5;exitY=1;exitDx=0;exitDy=0;" edge="1" parent="1" source="6" target="13">
                    <mxGeometry relative="1" as="geometry">
                        <mxPoint x="170" y="150" as="sourcePoint"/>
                        <mxPoint x="380" y="181.04999999999995" as="targetPoint"/>
                        <Array as="points">
                            <mxPoint x="100" y="318"/>
                        </Array>
                    </mxGeometry>
                </mxCell>
                <mxCell id="37" value="&lt;font color=&quot;#ffffff&quot;&gt;Fetches from Tags Table&lt;/font&gt;" style="edgeLabel;html=1;align=center;verticalAlign=middle;resizable=0;points=[];fontColor=#131313;" vertex="1" connectable="0" parent="33">
                    <mxGeometry x="-0.3485" y="-1" relative="1" as="geometry">
                        <mxPoint x="49.1" as="offset"/>
                    </mxGeometry>
                </mxCell>
                <mxCell id="41" style="edgeStyle=orthogonalEdgeStyle;curved=1;rounded=0;orthogonalLoop=1;jettySize=auto;html=1;entryX=1;entryY=1;entryDx=0;entryDy=0;shadow=1;strokeColor=#FFFFFF;strokeWidth=2;fontColor=#131313;exitX=0.5;exitY=1;exitDx=0;exitDy=0;" edge="1" parent="1" source="39" target="6">
                    <mxGeometry relative="1" as="geometry">
                        <Array as="points">
                            <mxPoint x="260" y="310"/>
                            <mxPoint x="160" y="310"/>
                        </Array>
                    </mxGeometry>
                </mxCell>
                <mxCell id="39" value="Remove Duplicate&lt;br&gt;Tags" style="rhombus;whiteSpace=wrap;html=1;rounded=1;shadow=1;labelBackgroundColor=none;strokeColor=#7EA6E0;fillColor=#ffffff;fontColor=#131313;" vertex="1" parent="1">
                    <mxGeometry x="220" y="210" width="80" height="80" as="geometry"/>
                </mxCell>
                <mxCell id="42" value="" style="html=1;aspect=fixed;strokeColor=none;shadow=0;align=center;verticalAlign=top;fillColor=#3B8DF1;shape=mxgraph.gcp2.search;rounded=1;labelBackgroundColor=none;fontColor=#131313;" vertex="1" parent="1">
                    <mxGeometry x="245" y="680" width="19.8" height="20" as="geometry"/>
                </mxCell>
                <mxCell id="44" value="Search" style="rounded=1;whiteSpace=wrap;html=1;shadow=0;labelBackgroundColor=none;strokeColor=#7EA6E0;fillColor=#ffffff;fontColor=#131313;align=left;arcSize=0;" vertex="1" parent="1">
                    <mxGeometry x="85" y="675" width="150" height="30" as="geometry"/>
                </mxCell>
                <mxCell id="45" value="&lt;font color=&quot;#131313&quot;&gt;&lt;b&gt;&lt;u&gt;Subjects&lt;/u&gt;&lt;/b&gt;&lt;/font&gt;" style="rounded=1;whiteSpace=wrap;html=1;strokeColor=#7EA6E0;fillColor=#ffffff;" vertex="1" parent="1">
                    <mxGeometry x="45" y="890" width="120" height="40" as="geometry"/>
                </mxCell>
                <mxCell id="55" style="edgeStyle=orthogonalEdgeStyle;curved=1;rounded=0;orthogonalLoop=1;jettySize=auto;html=1;shadow=1;strokeColor=#FFFFFF;strokeWidth=2;fontColor=#131313;" edge="1" parent="1" source="46" target="48">
                    <mxGeometry relative="1" as="geometry"/>
                </mxCell>
                <mxCell id="46" value="&lt;font color=&quot;#131313&quot;&gt;&lt;b&gt;&lt;u&gt;Tags&lt;/u&gt;&lt;/b&gt;&lt;/font&gt;" style="rounded=1;whiteSpace=wrap;html=1;strokeColor=#7EA6E0;fillColor=#ffffff;" vertex="1" parent="1">
                    <mxGeometry x="250" y="980" width="120" height="40" as="geometry"/>
                </mxCell>
                <mxCell id="49" style="edgeStyle=orthogonalEdgeStyle;curved=1;rounded=0;orthogonalLoop=1;jettySize=auto;html=1;entryX=0.5;entryY=0;entryDx=0;entryDy=0;shadow=1;strokeColor=#FFFFFF;strokeWidth=2;fontColor=#131313;" edge="1" parent="1" source="47" target="48">
                    <mxGeometry relative="1" as="geometry"/>
                </mxCell>
                <mxCell id="47" value="&lt;font color=&quot;#131313&quot;&gt;&lt;b&gt;&lt;u&gt;Lookup&lt;/u&gt;&lt;/b&gt;&lt;/font&gt;" style="rounded=1;whiteSpace=wrap;html=1;strokeColor=#7EA6E0;fillColor=#ffffff;" vertex="1" parent="1">
                    <mxGeometry x="135" y="730" width="120" height="40" as="geometry"/>
                </mxCell>
                <mxCell id="50" style="edgeStyle=orthogonalEdgeStyle;curved=1;rounded=0;orthogonalLoop=1;jettySize=auto;html=1;shadow=1;strokeColor=#FFFFFF;strokeWidth=2;fontColor=#131313;exitX=0;exitY=0.5;exitDx=0;exitDy=0;" edge="1" parent="1" source="48" target="45">
                    <mxGeometry relative="1" as="geometry"/>
                </mxCell>
                <mxCell id="52" style="edgeStyle=orthogonalEdgeStyle;curved=1;rounded=0;orthogonalLoop=1;jettySize=auto;html=1;entryX=0.5;entryY=0;entryDx=0;entryDy=0;entryPerimeter=0;shadow=1;strokeColor=#FFFFFF;strokeWidth=2;fontColor=#131313;" edge="1" parent="1" source="48" target="51">
                    <mxGeometry relative="1" as="geometry"/>
                </mxCell>
                <mxCell id="53" value="&lt;font color=&quot;#ffffff&quot;&gt;If a term&lt;br&gt;was not in &lt;br&gt;subjects:&amp;nbsp;&lt;br&gt;try tags&lt;/font&gt;" style="edgeLabel;html=1;align=center;verticalAlign=middle;resizable=0;points=[];fontColor=#131313;" vertex="1" connectable="0" parent="52">
                    <mxGeometry x="-0.3504" y="-9" relative="1" as="geometry">
                        <mxPoint as="offset"/>
                    </mxGeometry>
                </mxCell>
                <mxCell id="48" value="Prioratise&lt;br&gt;Lookup&lt;br&gt;Table" style="rhombus;whiteSpace=wrap;html=1;rounded=1;shadow=1;labelBackgroundColor=none;strokeColor=#7EA6E0;fillColor=#ffffff;fontColor=#131313;" vertex="1" parent="1">
                    <mxGeometry x="155" y="800" width="80" height="80" as="geometry"/>
                </mxCell>
                <mxCell id="54" style="edgeStyle=orthogonalEdgeStyle;curved=1;rounded=0;orthogonalLoop=1;jettySize=auto;html=1;shadow=1;strokeColor=#FFFFFF;strokeWidth=2;fontColor=#131313;" edge="1" parent="1" source="51" target="46">
                    <mxGeometry relative="1" as="geometry"/>
                </mxCell>
                <mxCell id="51" value="" style="aspect=fixed;pointerEvents=1;shadow=0;dashed=0;html=1;strokeColor=#66B2FF;labelPosition=center;verticalLabelPosition=bottom;verticalAlign=top;align=center;fillColor=#FFFFFF;shape=mxgraph.mscae.enterprise.filter;rounded=1;labelBackgroundColor=none;fontColor=#131313;" vertex="1" parent="1">
                    <mxGeometry x="285" y="895" width="50" height="45" as="geometry"/>
                </mxCell>
                <mxCell id="56" value="&lt;font color=&quot;#ffffff&quot;&gt;1.&lt;/font&gt;" style="text;html=1;align=center;verticalAlign=middle;resizable=0;points=[];autosize=1;fontColor=#131313;" vertex="1" parent="1">
                    <mxGeometry x="59" y="870" width="30" height="20" as="geometry"/>
                </mxCell>
                <mxCell id="57" value="&lt;font color=&quot;#ffffff&quot;&gt;2.&lt;/font&gt;" style="text;html=1;align=center;verticalAlign=middle;resizable=0;points=[];autosize=1;fontColor=#131313;" vertex="1" parent="1">
                    <mxGeometry x="255" y="960" width="30" height="20" as="geometry"/>
                </mxCell>
                <mxCell id="58" value="&lt;b&gt;&lt;font style=&quot;font-size: 18px&quot; color=&quot;#ffffff&quot;&gt;&lt;u&gt;Auto Complete - Terms&lt;/u&gt;&lt;/font&gt;&lt;/b&gt;" style="text;html=1;align=left;verticalAlign=middle;resizable=0;points=[];autosize=1;fontColor=#131313;" vertex="1" parent="1">
                    <mxGeometry x="40" y="600" width="210" height="20" as="geometry"/>
                </mxCell>
                <mxCell id="59" value="&lt;b&gt;&lt;font style=&quot;font-size: 18px&quot; color=&quot;#ffffff&quot;&gt;&lt;u&gt;Subject and Tag Relationships&lt;/u&gt;&lt;/font&gt;&lt;/b&gt;" style="text;html=1;align=left;verticalAlign=middle;resizable=0;points=[];autosize=1;fontColor=#131313;" vertex="1" parent="1">
                    <mxGeometry x="40" y="70" width="280" height="20" as="geometry"/>
                </mxCell>
                <mxCell id="71" value="&lt;font color=&quot;#131313&quot;&gt;&lt;b&gt;&lt;u&gt;Article / Post...&lt;/u&gt;&lt;/b&gt;&lt;/font&gt;" style="rounded=1;whiteSpace=wrap;html=1;strokeColor=#7EA6E0;fillColor=#ffffff;" vertex="1" parent="1">
                    <mxGeometry x="40" y="360" width="120" height="40" as="geometry"/>
                </mxCell>
                <mxCell id="75" value="" style="group" vertex="1" connectable="0" parent="1">
                    <mxGeometry x="90" y="440" width="290" height="78" as="geometry"/>
                </mxCell>
                <mxCell id="73" value="&lt;table border=&quot;1&quot; style=&quot;border: 1px solid rgb(230 , 230 , 230) ; border-collapse: collapse&quot;&gt;&lt;tbody&gt;&lt;tr&gt;&lt;td&gt;&lt;font color=&quot;#ffffff&quot; style=&quot;background-color: rgb(102 , 178 , 255)&quot;&gt;ID&lt;/font&gt;&lt;/td&gt;&lt;td&gt;&lt;font color=&quot;#ffffff&quot; style=&quot;background-color: rgb(102 , 178 , 255)&quot;&gt;Title&lt;/font&gt;&lt;/td&gt;&lt;td&gt;&lt;font color=&quot;#ffffff&quot; style=&quot;background-color: rgb(102 , 178 , 255)&quot;&gt;Subject_Ids&lt;/font&gt;&lt;/td&gt;&lt;td&gt;&lt;font color=&quot;#ffffff&quot; style=&quot;background-color: rgb(102 , 178 , 255)&quot;&gt;Tag_Ids&lt;/font&gt;&lt;/td&gt;&lt;td&gt;&lt;font color=&quot;#ffffff&quot; style=&quot;background-color: rgb(102 , 178 , 255)&quot;&gt;Desc&lt;/font&gt;&lt;/td&gt;&lt;td&gt;&lt;font color=&quot;#ffffff&quot; style=&quot;background-color: rgb(102 , 178 , 255)&quot;&gt;Content&lt;/font&gt;&lt;/td&gt;&lt;/tr&gt;&lt;tr&gt;&lt;td&gt;&lt;span&gt;&lt;font color=&quot;#131313&quot;&gt;11&lt;/font&gt;&lt;/span&gt;&lt;/td&gt;&lt;td&gt;&lt;span&gt;&lt;font color=&quot;#131313&quot;&gt;AtOne&lt;/font&gt;&lt;/span&gt;&lt;/td&gt;&lt;td&gt;&lt;span&gt;&lt;font color=&quot;#131313&quot;&gt;1,2,5,9&lt;/font&gt;&lt;/span&gt;&lt;/td&gt;&lt;td&gt;&lt;span&gt;&lt;font color=&quot;#131313&quot;&gt;3,5,6&lt;/font&gt;&lt;/span&gt;&lt;/td&gt;&lt;td&gt;&lt;span&gt;&lt;font color=&quot;#131313&quot;&gt;FirstOn&lt;/font&gt;&lt;/span&gt;&lt;/td&gt;&lt;td&gt;&lt;span&gt;&lt;font color=&quot;#131313&quot;&gt;~~&lt;/font&gt;&lt;/span&gt;&lt;/td&gt;&lt;/tr&gt;&lt;tr&gt;&lt;td&gt;&lt;span&gt;&lt;font color=&quot;#131313&quot;&gt;12&lt;/font&gt;&lt;/span&gt;&lt;/td&gt;&lt;td&gt;&lt;span&gt;&lt;font color=&quot;#131313&quot;&gt;Two&lt;/font&gt;&lt;/span&gt;&lt;/td&gt;&lt;td&gt;&lt;span&gt;&lt;font color=&quot;#131313&quot;&gt;3,7,8&lt;/font&gt;&lt;/span&gt;&lt;/td&gt;&lt;td&gt;&lt;span&gt;&lt;font color=&quot;#131313&quot;&gt;1,2,4&lt;/font&gt;&lt;/span&gt;&lt;/td&gt;&lt;td&gt;&lt;span&gt;&lt;font color=&quot;#131313&quot;&gt;None&lt;/font&gt;&lt;/span&gt;&lt;/td&gt;&lt;td&gt;&lt;span&gt;&lt;font color=&quot;#131313&quot;&gt;~~&lt;/font&gt;&lt;/span&gt;&lt;/td&gt;&lt;/tr&gt;&lt;/tbody&gt;&lt;/table&gt;" style="rounded=1;whiteSpace=wrap;html=1;strokeColor=#7EA6E0;fillColor=#ffffff;" vertex="1" parent="75">
                    <mxGeometry width="290.00000000000006" height="78" as="geometry"/>
                </mxCell>
                <mxCell id="74" value="Article Table" style="text;html=1;align=left;verticalAlign=bottom;resizable=0;points=[];autosize=1;fontColor=#131313;" vertex="1" parent="75">
                    <mxGeometry x="20.000740740740742" width="80" height="20" as="geometry"/>
                </mxCell>
                <mxCell id="76" value="" style="group" vertex="1" connectable="0" parent="1">
                    <mxGeometry x="190" y="330" width="270" height="92" as="geometry"/>
                </mxCell>
                <mxCell id="77" value="&lt;table border=&quot;1&quot; style=&quot;border: 1px solid rgb(230 , 230 , 230) ; border-collapse: collapse&quot;&gt;&lt;tbody&gt;&lt;tr&gt;&lt;td&gt;&lt;font color=&quot;#ffffff&quot; style=&quot;background-color: rgb(102 , 178 , 255)&quot;&gt;ID&lt;/font&gt;&lt;/td&gt;&lt;td&gt;&lt;font color=&quot;#ffffff&quot;&gt;&lt;span style=&quot;background-color: rgb(102 , 178 , 255)&quot;&gt;Art_Id&lt;/span&gt;&lt;/font&gt;&lt;/td&gt;&lt;td&gt;&lt;font color=&quot;#ffffff&quot; style=&quot;background-color: rgb(102 , 178 , 255)&quot;&gt;Subject_Ids&lt;/font&gt;&lt;/td&gt;&lt;td&gt;&lt;font color=&quot;#ffffff&quot; style=&quot;background-color: rgb(102 , 178 , 255)&quot;&gt;Tag_Ids&lt;/font&gt;&lt;/td&gt;&lt;/tr&gt;&lt;tr&gt;&lt;td&gt;&lt;span&gt;&lt;font color=&quot;#131313&quot;&gt;121&lt;/font&gt;&lt;/span&gt;&lt;/td&gt;&lt;td&gt;&lt;span&gt;&lt;font color=&quot;#131313&quot;&gt;11&lt;/font&gt;&lt;/span&gt;&lt;/td&gt;&lt;td&gt;&lt;span&gt;&lt;font color=&quot;#131313&quot;&gt;1,2,5,9&lt;/font&gt;&lt;/span&gt;&lt;/td&gt;&lt;td&gt;&lt;span&gt;&lt;font color=&quot;#131313&quot;&gt;3,5,6&lt;/font&gt;&lt;/span&gt;&lt;/td&gt;&lt;/tr&gt;&lt;tr&gt;&lt;td&gt;&lt;font color=&quot;#131313&quot;&gt;543&lt;/font&gt;&lt;/td&gt;&lt;td&gt;&lt;span&gt;&lt;font color=&quot;#131313&quot;&gt;12&lt;/font&gt;&lt;/span&gt;&lt;/td&gt;&lt;td&gt;&lt;span&gt;&lt;font color=&quot;#131313&quot;&gt;3,7,8&lt;/font&gt;&lt;/span&gt;&lt;/td&gt;&lt;td&gt;&lt;span&gt;&lt;font color=&quot;#131313&quot;&gt;1,2,4&lt;/font&gt;&lt;/span&gt;&lt;/td&gt;&lt;/tr&gt;&lt;/tbody&gt;&lt;/table&gt;" style="rounded=1;whiteSpace=wrap;html=1;strokeColor=#7EA6E0;fillColor=#ffffff;" vertex="1" parent="76">
                    <mxGeometry width="270" height="92.00000000000001" as="geometry"/>
                </mxCell>
                <mxCell id="78" value="Article-Subjects" style="text;html=1;align=left;verticalAlign=middle;resizable=0;points=[];autosize=1;fontColor=#131313;" vertex="1" parent="76">
                    <mxGeometry x="10" width="100" height="20" as="geometry"/>
                </mxCell>
            </root>
        </mxGraphModel>
    </diagram>
</mxfile>
